<?xml version="1.0" encoding="iso-8859-1"?>
<!-- Generator: Adobe Illustrator 18.0.0, SVG Export Plug-In . SVG Version: 6.00 Build 0)  -->
<!DOCTYPE svg PUBLIC "-//W3C//DTD SVG 1.1//EN" "http://www.w3.org/Graphics/SVG/1.1/DTD/svg11.dtd">
<svg version="1.1" id="Capa_1" xmlns="http://www.w3.org/2000/svg" xmlns:xlink="http://www.w3.org/1999/xlink" x="0px" y="0px"
	viewBox="100 210 360 100" style="enable-background:new 0 0 595.28 841.89;" xml:space="preserve">
<g id="logo">
	<polygon id="XMLID_21_" style="fill:#C4C4C4;" points="186.878,255.589 137.534,255.589 137.534,217.794 130.185,217.794
		130.185,299.684 137.534,299.684 137.534,262.939 186.878,262.939 186.878,299.684 194.227,299.684 194.227,217.794
		186.878,217.794"/>
	<path id="XMLID_20_" style="fill:#C4C4C4;" d="M230.973,269.238c7.349,0,13.648-3.15,17.848-7.349
		c4.2-4.199,7.349-10.499,6.299-17.848c0-12.599-8.399-25.197-27.297-25.197h-28.347v7.349h28.347c5.249,0,10.499,2.1,13.648,5.249
		c3.15,3.15,5.249,8.399,5.249,12.599c0,11.549-7.349,17.848-18.898,17.848h-27.297v7.349h20.998l27.297,30.446h10.499
		L230.973,269.238z"/>
	<circle id="XMLID_15_" style="fill:#C4C4C4;" cx="271.918" cy="258.739" r="8.399"/>
	<g id="XMLID_2_">
		<polygon id="XMLID_14_" style="fill:#C4C4C4;" points="403.153,282.886 427.3,258.739 403.153,234.592"/>
		<polygon id="XMLID_9_" style="fill:#C4C4C4;" points="323.362,227.243 291.866,258.739 323.362,290.235"/>
		<polygon id="XMLID_7_" style="fill:#C4C4C4;" points="348.559,221.993 395.803,280.786 395.803,228.293 360.108,191.547
			330.711,220.944 330.711,221.993 330.711,295.485 330.711,296.535 360.108,325.931 395.803,290.235 351.709,236.692
			351.709,295.485 345.409,295.485 345.409,221.993"/>
	</g>
</g>
<rect id="_x3C_Sector_x3E_" x="123" y="181.89" style="fill:none;" width="333" height="148"/>
</svg>
